<svg xmlns="http://www.w3.org/2000/svg" xmlns:xlink="http://www.w3.org/1999/xlink" version="1.1" x="0px" y="0px" viewBox="0 0 60 60" style="enable-background:new 0 0 60 60;" xml:space="preserve"><path d="M17.5,55h25c2.5,0,4.6-2.1,4.6-4.6v-32h1.3c0.6,0,1-0.4,1-1V14c0-2.1-1.7-3.8-3.8-3.8h-8.8V8.1c0-1.7-1.4-3.1-3.1-3.1h-7.3  c-1.7,0-3.1,1.4-3.1,3.1v2.1h-8.8c-2.1,0-3.8,1.7-3.8,3.8v3.3c0,0.6,0.4,1,1,1h1.3v32C12.9,52.9,15,55,17.5,55z M45.1,50.4  c0,1.4-1.2,2.6-2.6,2.6h-25c-1.4,0-2.6-1.2-2.6-2.6v-32h30.2V50.4z M25.2,8.1c0-0.6,0.5-1.1,1.1-1.1h7.3c0.6,0,1.1,0.5,1.1,1.1v2.1  h-9.5V8.1z M12.6,14c0-1,0.8-1.8,1.8-1.8h9.8c0,0,0,0,0,0s0,0,0,0h11.5c0,0,0,0,0,0s0,0,0,0h9.8c1,0,1.8,0.8,1.8,1.8v2.3H12.6V14z"/><path d="M33.2,49c0.6,0,1-0.4,1-1V23.3c0-0.6-0.4-1-1-1s-1,0.4-1,1V48C32.2,48.6,32.7,49,33.2,49z"/><path d="M26.8,49c0.6,0,1-0.4,1-1V23.3c0-0.6-0.4-1-1-1s-1,0.4-1,1V48C25.8,48.6,26.2,49,26.8,49z"/><path d="M39.6,49c0.6,0,1-0.4,1-1V23.3c0-0.6-0.4-1-1-1s-1,0.4-1,1V48C38.6,48.6,39.1,49,39.6,49z"/><path d="M20.4,49c0.6,0,1-0.4,1-1V23.3c0-0.6-0.4-1-1-1s-1,0.4-1,1V48C19.4,48.6,19.8,49,20.4,49z"/></svg>